<mxfile host="app.diagrams.net" agent="Mozilla/5.0 (Windows NT 10.0; Win64; x64) AppleWebKit/537.36 (KHTML, like Gecko) Chrome/134.0.0.0 Safari/537.36 Edg/134.0.0.0" version="26.1.1">
  <diagram name="第 1 页" id="IPQzzbcNh04fH0RfDCq0">
    <mxGraphModel dx="853" dy="507" grid="1" gridSize="10" guides="1" tooltips="1" connect="1" arrows="1" fold="1" page="1" pageScale="1" pageWidth="827" pageHeight="1169" math="0" shadow="0">
      <root>
        <mxCell id="0" />
        <mxCell id="1" parent="0" />
        <mxCell id="CwzUmZ6QUNwuPmMSc85O-63" value="" style="shape=curlyBracket;whiteSpace=wrap;html=1;rounded=1;labelPosition=left;verticalLabelPosition=middle;align=right;verticalAlign=middle;" parent="1" vertex="1">
          <mxGeometry x="90" y="110" width="20" height="160" as="geometry" />
        </mxCell>
        <mxCell id="CwzUmZ6QUNwuPmMSc85O-64" value="H" style="text;html=1;align=center;verticalAlign=middle;resizable=0;points=[];autosize=1;strokeColor=none;fillColor=none;" parent="1" vertex="1">
          <mxGeometry x="55" y="178" width="30" height="30" as="geometry" />
        </mxCell>
        <mxCell id="CwzUmZ6QUNwuPmMSc85O-66" value="" style="shape=curlyBracket;whiteSpace=wrap;html=1;rounded=1;labelPosition=left;verticalLabelPosition=middle;align=right;verticalAlign=middle;rotation=90;" parent="1" vertex="1">
          <mxGeometry x="210" y="-10" width="20" height="160" as="geometry" />
        </mxCell>
        <mxCell id="CwzUmZ6QUNwuPmMSc85O-67" value="w" style="text;html=1;align=center;verticalAlign=middle;resizable=0;points=[];autosize=1;strokeColor=none;fillColor=none;" parent="1" vertex="1">
          <mxGeometry x="205" y="38" width="30" height="30" as="geometry" />
        </mxCell>
      </root>
    </mxGraphModel>
  </diagram>
</mxfile>
